<svg width="15" height="18" viewBox="0 0 15 18" fill="none" xmlns="http://www.w3.org/2000/svg">
<path d="M7.32218 9.64491C7.33982 9.64491 7.35746 9.64491 7.37863 9.64491C7.38569 9.64491 7.39274 9.64491 7.3998 9.64491C7.41038 9.64491 7.4245 9.64491 7.43508 9.64491C8.46883 9.62768 9.30501 9.2727 9.92244 8.59375C11.2808 7.09799 11.055 4.53383 11.0303 4.28913C10.9421 2.45217 10.053 1.57332 9.31912 1.1632C8.77226 0.856462 8.13366 0.691032 7.42097 0.677246H7.39627C7.39274 0.677246 7.38569 0.677246 7.38216 0.677246H7.36099C6.96936 0.677246 6.20022 0.739282 5.46283 1.14941C4.72192 1.55954 3.81871 2.43838 3.7305 4.28913C3.70581 4.53383 3.48 7.09799 4.83835 8.59375C5.45225 9.2727 6.28843 9.62768 7.32218 9.64491ZM4.67252 4.37529C4.67252 4.36495 4.67605 4.35461 4.67605 4.34772C4.79248 1.87661 6.58832 1.61123 7.35746 1.61123H7.37157C7.37863 1.61123 7.38921 1.61123 7.3998 1.61123C8.35241 1.63191 9.97184 2.01102 10.0812 4.34772C10.0812 4.35806 10.0812 4.3684 10.0847 4.37529C10.0883 4.39941 10.3352 6.743 9.21328 7.97683C8.76873 8.46623 8.176 8.70748 7.39627 8.71437C7.38922 8.71437 7.38569 8.71437 7.37863 8.71437C7.37157 8.71437 7.36805 8.71437 7.36099 8.71437C6.58479 8.70748 5.98853 8.46623 5.54751 7.97683C4.42908 6.74989 4.669 4.39597 4.67252 4.37529Z" fill="#949494"/>
<path d="M14.629 13.8978C14.629 13.8944 14.629 13.8909 14.629 13.8875C14.629 13.8599 14.6255 13.8323 14.6255 13.8013C14.6043 13.1189 14.5584 11.5232 13.0272 11.0131C13.0166 11.0097 13.0025 11.0062 12.9919 11.0028C11.4007 10.6064 10.0777 9.71036 10.0635 9.70003C9.84833 9.55183 9.55196 9.60353 9.40025 9.81376C9.24854 10.024 9.30146 10.3135 9.51668 10.4617C9.57666 10.503 10.9809 11.4577 12.7379 11.8989C13.56 12.1849 13.6517 13.0431 13.6764 13.8289C13.6764 13.8599 13.6764 13.8875 13.6799 13.915C13.6835 14.2252 13.6623 14.7043 13.6058 14.98C13.0343 15.2971 10.7939 16.393 7.38567 16.393C3.99157 16.393 1.73707 15.2936 1.16198 14.9765C1.10553 14.7008 1.08083 14.2218 1.08789 13.9116C1.08789 13.884 1.09141 13.8564 1.09141 13.8254C1.11611 13.0396 1.20784 12.1815 2.02991 11.8954C3.78694 11.4543 5.19115 10.4962 5.25113 10.4582C5.46634 10.31 5.51927 10.0205 5.36756 9.81031C5.21584 9.60008 4.91948 9.54838 4.70426 9.69658C4.69015 9.70692 3.37414 10.603 1.77588 10.9993C1.76177 11.0028 1.75118 11.0062 1.7406 11.0097C0.209372 11.5232 0.163505 13.1189 0.142336 13.7979C0.142336 13.8289 0.142336 13.8564 0.138808 13.884C0.138808 13.8875 0.138808 13.8909 0.138808 13.8944C0.13528 14.0736 0.131752 14.9938 0.318745 15.4556C0.354027 15.5452 0.417534 15.621 0.50221 15.6727C0.608055 15.7417 3.14481 17.3201 7.3892 17.3201C11.6336 17.3201 14.1703 15.7382 14.2762 15.6727C14.3573 15.621 14.4244 15.5452 14.4596 15.4556C14.6361 14.9972 14.6325 14.077 14.629 13.8978Z" fill="#949494"/>
</svg>
